<?xml version="1.0" encoding="utf-8" standalone="no"?>
<!DOCTYPE svg PUBLIC "-//W3C//DTD SVG 1.1//EN"
  "http://www.w3.org/Graphics/SVG/1.1/DTD/svg11.dtd">
<svg xmlns:xlink="http://www.w3.org/1999/xlink" width="786.15pt" height="720pt" viewBox="0 0 786.15 720" xmlns="http://www.w3.org/2000/svg" version="1.1">
 <metadata>
  <rdf:RDF xmlns:dc="http://purl.org/dc/elements/1.1/" xmlns:cc="http://creativecommons.org/ns#" xmlns:rdf="http://www.w3.org/1999/02/22-rdf-syntax-ns#">
   <cc:Work>
    <dc:type rdf:resource="http://purl.org/dc/dcmitype/StillImage"/>
    <dc:date>2025-11-11T08:56:19.275835</dc:date>
    <dc:format>image/svg+xml</dc:format>
    <dc:creator>
     <cc:Agent>
      <dc:title>Matplotlib v3.8.2, https://matplotlib.org/</dc:title>
     </cc:Agent>
    </dc:creator>
   </cc:Work>
  </rdf:RDF>
 </metadata>
 <defs>
  <style type="text/css">*{stroke-linejoin: round; stroke-linecap: butt}</style>
 </defs>
 <g id="figure_1">
  <g id="patch_1">
   <path d="M 0 720 
L 786.15 720 
L 786.15 0 
L 0 0 
z
" style="fill: #ffffff"/>
  </g>
  <g id="axes_1">
   <g id="patch_2">
    <path d="M 93.355313 650.328469 
L 712.1385 650.328469 
L 712.1385 31.545281 
L 93.355313 31.545281 
z
" style="fill: #ffffff"/>
   </g>
   <g id="matplotlib.axis_1">
    <g id="xtick_1">
     <g id="line2d_1">
      <path d="M 105.254989 650.328469 
L 105.254989 31.545281 
" clip-path="url(#p0e38d2a662)" style="fill: none; stroke: #cccccc; stroke-linecap: round"/>
     </g>
     <g id="text_1">
      <!-- fsl_ad -->
      <g style="fill: #262626" transform="translate(108.137333 691.711281) rotate(-90) scale(0.11 -0.11)">
       <defs>
        <path id="DejaVuSans-66" d="M 2375 4863 
L 2375 4384 
L 1825 4384 
Q 1516 4384 1395 4259 
Q 1275 4134 1275 3809 
L 1275 3500 
L 2222 3500 
L 2222 3053 
L 1275 3053 
L 1275 0 
L 697 0 
L 697 3053 
L 147 3053 
L 147 3500 
L 697 3500 
L 697 3744 
Q 697 4328 969 4595 
Q 1241 4863 1831 4863 
L 2375 4863 
z
" transform="scale(0.015625)"/>
        <path id="DejaVuSans-73" d="M 2834 3397 
L 2834 2853 
Q 2591 2978 2328 3040 
Q 2066 3103 1784 3103 
Q 1356 3103 1142 2972 
Q 928 2841 928 2578 
Q 928 2378 1081 2264 
Q 1234 2150 1697 2047 
L 1894 2003 
Q 2506 1872 2764 1633 
Q 3022 1394 3022 966 
Q 3022 478 2636 193 
Q 2250 -91 1575 -91 
Q 1294 -91 989 -36 
Q 684 19 347 128 
L 347 722 
Q 666 556 975 473 
Q 1284 391 1588 391 
Q 1994 391 2212 530 
Q 2431 669 2431 922 
Q 2431 1156 2273 1281 
Q 2116 1406 1581 1522 
L 1381 1569 
Q 847 1681 609 1914 
Q 372 2147 372 2553 
Q 372 3047 722 3315 
Q 1072 3584 1716 3584 
Q 2034 3584 2315 3537 
Q 2597 3491 2834 3397 
z
" transform="scale(0.015625)"/>
        <path id="DejaVuSans-6c" d="M 603 4863 
L 1178 4863 
L 1178 0 
L 603 0 
L 603 4863 
z
" transform="scale(0.015625)"/>
        <path id="DejaVuSans-5f" d="M 3263 -1063 
L 3263 -1509 
L -63 -1509 
L -63 -1063 
L 3263 -1063 
z
" transform="scale(0.015625)"/>
        <path id="DejaVuSans-61" d="M 2194 1759 
Q 1497 1759 1228 1600 
Q 959 1441 959 1056 
Q 959 750 1161 570 
Q 1363 391 1709 391 
Q 2188 391 2477 730 
Q 2766 1069 2766 1631 
L 2766 1759 
L 2194 1759 
z
M 3341 1997 
L 3341 0 
L 2766 0 
L 2766 531 
Q 2569 213 2275 61 
Q 1981 -91 1556 -91 
Q 1019 -91 701 211 
Q 384 513 384 1019 
Q 384 1609 779 1909 
Q 1175 2209 1959 2209 
L 2766 2209 
L 2766 2266 
Q 2766 2663 2505 2880 
Q 2244 3097 1772 3097 
Q 1472 3097 1187 3025 
Q 903 2953 641 2809 
L 641 3341 
Q 956 3463 1253 3523 
Q 1550 3584 1831 3584 
Q 2591 3584 2966 3190 
Q 3341 2797 3341 1997 
z
" transform="scale(0.015625)"/>
        <path id="DejaVuSans-64" d="M 2906 2969 
L 2906 4863 
L 3481 4863 
L 3481 0 
L 2906 0 
L 2906 525 
Q 2725 213 2448 61 
Q 2172 -91 1784 -91 
Q 1150 -91 751 415 
Q 353 922 353 1747 
Q 353 2572 751 3078 
Q 1150 3584 1784 3584 
Q 2172 3584 2448 3432 
Q 2725 3281 2906 2969 
z
M 947 1747 
Q 947 1113 1208 752 
Q 1469 391 1925 391 
Q 2381 391 2643 752 
Q 2906 1113 2906 1747 
Q 2906 2381 2643 2742 
Q 2381 3103 1925 3103 
Q 1469 3103 1208 2742 
Q 947 2381 947 1747 
z
" transform="scale(0.015625)"/>
       </defs>
       <use xlink:href="#DejaVuSans-66"/>
       <use xlink:href="#DejaVuSans-73" x="35.205078"/>
       <use xlink:href="#DejaVuSans-6c" x="87.304688"/>
       <use xlink:href="#DejaVuSans-5f" x="115.087891"/>
       <use xlink:href="#DejaVuSans-61" x="165.087891"/>
       <use xlink:href="#DejaVuSans-64" x="226.367188"/>
      </g>
     </g>
    </g>
    <g id="xtick_2">
     <g id="line2d_2">
      <path d="M 224.251756 650.328469 
L 224.251756 31.545281 
" clip-path="url(#p0e38d2a662)" style="fill: none; stroke: #cccccc; stroke-linecap: round"/>
     </g>
     <g id="text_2">
      <!-- fsl_mci -->
      <g style="fill: #262626" transform="translate(227.1341 697.805969) rotate(-90) scale(0.11 -0.11)">
       <defs>
        <path id="DejaVuSans-6d" d="M 3328 2828 
Q 3544 3216 3844 3400 
Q 4144 3584 4550 3584 
Q 5097 3584 5394 3201 
Q 5691 2819 5691 2113 
L 5691 0 
L 5113 0 
L 5113 2094 
Q 5113 2597 4934 2840 
Q 4756 3084 4391 3084 
Q 3944 3084 3684 2787 
Q 3425 2491 3425 1978 
L 3425 0 
L 2847 0 
L 2847 2094 
Q 2847 2600 2669 2842 
Q 2491 3084 2119 3084 
Q 1678 3084 1418 2786 
Q 1159 2488 1159 1978 
L 1159 0 
L 581 0 
L 581 3500 
L 1159 3500 
L 1159 2956 
Q 1356 3278 1631 3431 
Q 1906 3584 2284 3584 
Q 2666 3584 2933 3390 
Q 3200 3197 3328 2828 
z
" transform="scale(0.015625)"/>
        <path id="DejaVuSans-63" d="M 3122 3366 
L 3122 2828 
Q 2878 2963 2633 3030 
Q 2388 3097 2138 3097 
Q 1578 3097 1268 2742 
Q 959 2388 959 1747 
Q 959 1106 1268 751 
Q 1578 397 2138 397 
Q 2388 397 2633 464 
Q 2878 531 3122 666 
L 3122 134 
Q 2881 22 2623 -34 
Q 2366 -91 2075 -91 
Q 1284 -91 818 406 
Q 353 903 353 1747 
Q 353 2603 823 3093 
Q 1294 3584 2113 3584 
Q 2378 3584 2631 3529 
Q 2884 3475 3122 3366 
z
" transform="scale(0.015625)"/>
        <path id="DejaVuSans-69" d="M 603 3500 
L 1178 3500 
L 1178 0 
L 603 0 
L 603 3500 
z
M 603 4863 
L 1178 4863 
L 1178 4134 
L 603 4134 
L 603 4863 
z
" transform="scale(0.015625)"/>
       </defs>
       <use xlink:href="#DejaVuSans-66"/>
       <use xlink:href="#DejaVuSans-73" x="35.205078"/>
       <use xlink:href="#DejaVuSans-6c" x="87.304688"/>
       <use xlink:href="#DejaVuSans-5f" x="115.087891"/>
       <use xlink:href="#DejaVuSans-6d" x="165.087891"/>
       <use xlink:href="#DejaVuSans-63" x="262.5"/>
       <use xlink:href="#DejaVuSans-69" x="317.480469"/>
      </g>
     </g>
    </g>
    <g id="xtick_3">
     <g id="line2d_3">
      <path d="M 343.248523 650.328469 
L 343.248523 31.545281 
" clip-path="url(#p0e38d2a662)" style="fill: none; stroke: #cccccc; stroke-linecap: round"/>
     </g>
     <g id="text_3">
      <!-- fsl_cn -->
      <g style="fill: #262626" transform="translate(346.130867 691.006594) rotate(-90) scale(0.11 -0.11)">
       <defs>
        <path id="DejaVuSans-6e" d="M 3513 2113 
L 3513 0 
L 2938 0 
L 2938 2094 
Q 2938 2591 2744 2837 
Q 2550 3084 2163 3084 
Q 1697 3084 1428 2787 
Q 1159 2491 1159 1978 
L 1159 0 
L 581 0 
L 581 3500 
L 1159 3500 
L 1159 2956 
Q 1366 3272 1645 3428 
Q 1925 3584 2291 3584 
Q 2894 3584 3203 3211 
Q 3513 2838 3513 2113 
z
" transform="scale(0.015625)"/>
       </defs>
       <use xlink:href="#DejaVuSans-66"/>
       <use xlink:href="#DejaVuSans-73" x="35.205078"/>
       <use xlink:href="#DejaVuSans-6c" x="87.304688"/>
       <use xlink:href="#DejaVuSans-5f" x="115.087891"/>
       <use xlink:href="#DejaVuSans-63" x="165.087891"/>
       <use xlink:href="#DejaVuSans-6e" x="220.068359"/>
      </g>
     </g>
    </g>
    <g id="xtick_4">
     <g id="line2d_4">
      <path d="M 462.24529 650.328469 
L 462.24529 31.545281 
" clip-path="url(#p0e38d2a662)" style="fill: none; stroke: #cccccc; stroke-linecap: round"/>
     </g>
     <g id="text_4">
      <!-- mni_ad -->
      <g style="fill: #262626" transform="translate(465.127633 699.794562) rotate(-90) scale(0.11 -0.11)">
       <use xlink:href="#DejaVuSans-6d"/>
       <use xlink:href="#DejaVuSans-6e" x="97.412109"/>
       <use xlink:href="#DejaVuSans-69" x="160.791016"/>
       <use xlink:href="#DejaVuSans-5f" x="188.574219"/>
       <use xlink:href="#DejaVuSans-61" x="238.574219"/>
       <use xlink:href="#DejaVuSans-64" x="299.853516"/>
      </g>
     </g>
    </g>
    <g id="xtick_5">
     <g id="line2d_5">
      <path d="M 581.242056 650.328469 
L 581.242056 31.545281 
" clip-path="url(#p0e38d2a662)" style="fill: none; stroke: #cccccc; stroke-linecap: round"/>
     </g>
     <g id="text_5">
      <!-- mni_mci -->
      <g style="fill: #262626" transform="translate(584.1244 705.88925) rotate(-90) scale(0.11 -0.11)">
       <use xlink:href="#DejaVuSans-6d"/>
       <use xlink:href="#DejaVuSans-6e" x="97.412109"/>
       <use xlink:href="#DejaVuSans-69" x="160.791016"/>
       <use xlink:href="#DejaVuSans-5f" x="188.574219"/>
       <use xlink:href="#DejaVuSans-6d" x="238.574219"/>
       <use xlink:href="#DejaVuSans-63" x="335.986328"/>
       <use xlink:href="#DejaVuSans-69" x="390.966797"/>
      </g>
     </g>
    </g>
    <g id="xtick_6">
     <g id="line2d_6">
      <path d="M 700.238823 650.328469 
L 700.238823 31.545281 
" clip-path="url(#p0e38d2a662)" style="fill: none; stroke: #cccccc; stroke-linecap: round"/>
     </g>
     <g id="text_6">
      <!-- mni_cn -->
      <g style="fill: #262626" transform="translate(703.121167 699.089875) rotate(-90) scale(0.11 -0.11)">
       <use xlink:href="#DejaVuSans-6d"/>
       <use xlink:href="#DejaVuSans-6e" x="97.412109"/>
       <use xlink:href="#DejaVuSans-69" x="160.791016"/>
       <use xlink:href="#DejaVuSans-5f" x="188.574219"/>
       <use xlink:href="#DejaVuSans-63" x="238.574219"/>
       <use xlink:href="#DejaVuSans-6e" x="293.554688"/>
      </g>
     </g>
    </g>
   </g>
   <g id="matplotlib.axis_2">
    <g id="ytick_1">
     <g id="line2d_7">
      <path d="M 93.355313 43.444958 
L 712.1385 43.444958 
" clip-path="url(#p0e38d2a662)" style="fill: none; stroke: #cccccc; stroke-linecap: round"/>
     </g>
     <g id="text_7">
      <!-- fsl_mci -->
      <g style="fill: #262626" transform="translate(45.877813 47.624099) scale(0.11 -0.11)">
       <use xlink:href="#DejaVuSans-66"/>
       <use xlink:href="#DejaVuSans-73" x="35.205078"/>
       <use xlink:href="#DejaVuSans-6c" x="87.304688"/>
       <use xlink:href="#DejaVuSans-5f" x="115.087891"/>
       <use xlink:href="#DejaVuSans-6d" x="165.087891"/>
       <use xlink:href="#DejaVuSans-63" x="262.5"/>
       <use xlink:href="#DejaVuSans-69" x="317.480469"/>
      </g>
     </g>
    </g>
    <g id="ytick_2">
     <g id="line2d_8">
      <path d="M 93.355313 162.441725 
L 712.1385 162.441725 
" clip-path="url(#p0e38d2a662)" style="fill: none; stroke: #cccccc; stroke-linecap: round"/>
     </g>
     <g id="text_8">
      <!-- fsl_cn -->
      <g style="fill: #262626" transform="translate(52.677188 166.620865) scale(0.11 -0.11)">
       <use xlink:href="#DejaVuSans-66"/>
       <use xlink:href="#DejaVuSans-73" x="35.205078"/>
       <use xlink:href="#DejaVuSans-6c" x="87.304688"/>
       <use xlink:href="#DejaVuSans-5f" x="115.087891"/>
       <use xlink:href="#DejaVuSans-63" x="165.087891"/>
       <use xlink:href="#DejaVuSans-6e" x="220.068359"/>
      </g>
     </g>
    </g>
    <g id="ytick_3">
     <g id="line2d_9">
      <path d="M 93.355313 281.438492 
L 712.1385 281.438492 
" clip-path="url(#p0e38d2a662)" style="fill: none; stroke: #cccccc; stroke-linecap: round"/>
     </g>
     <g id="text_9">
      <!-- mni_ad -->
      <g style="fill: #262626" transform="translate(43.889219 285.617632) scale(0.11 -0.11)">
       <use xlink:href="#DejaVuSans-6d"/>
       <use xlink:href="#DejaVuSans-6e" x="97.412109"/>
       <use xlink:href="#DejaVuSans-69" x="160.791016"/>
       <use xlink:href="#DejaVuSans-5f" x="188.574219"/>
       <use xlink:href="#DejaVuSans-61" x="238.574219"/>
       <use xlink:href="#DejaVuSans-64" x="299.853516"/>
      </g>
     </g>
    </g>
    <g id="ytick_4">
     <g id="line2d_10">
      <path d="M 93.355313 400.435258 
L 712.1385 400.435258 
" clip-path="url(#p0e38d2a662)" style="fill: none; stroke: #cccccc; stroke-linecap: round"/>
     </g>
     <g id="text_10">
      <!-- mni_mci -->
      <g style="fill: #262626" transform="translate(37.794531 404.614399) scale(0.11 -0.11)">
       <use xlink:href="#DejaVuSans-6d"/>
       <use xlink:href="#DejaVuSans-6e" x="97.412109"/>
       <use xlink:href="#DejaVuSans-69" x="160.791016"/>
       <use xlink:href="#DejaVuSans-5f" x="188.574219"/>
       <use xlink:href="#DejaVuSans-6d" x="238.574219"/>
       <use xlink:href="#DejaVuSans-63" x="335.986328"/>
       <use xlink:href="#DejaVuSans-69" x="390.966797"/>
      </g>
     </g>
    </g>
    <g id="ytick_5">
     <g id="line2d_11">
      <path d="M 93.355313 519.432025 
L 712.1385 519.432025 
" clip-path="url(#p0e38d2a662)" style="fill: none; stroke: #cccccc; stroke-linecap: round"/>
     </g>
     <g id="text_11">
      <!-- mni_cn -->
      <g style="fill: #262626" transform="translate(44.593906 523.611166) scale(0.11 -0.11)">
       <use xlink:href="#DejaVuSans-6d"/>
       <use xlink:href="#DejaVuSans-6e" x="97.412109"/>
       <use xlink:href="#DejaVuSans-69" x="160.791016"/>
       <use xlink:href="#DejaVuSans-5f" x="188.574219"/>
       <use xlink:href="#DejaVuSans-63" x="238.574219"/>
       <use xlink:href="#DejaVuSans-6e" x="293.554688"/>
      </g>
     </g>
    </g>
    <g id="ytick_6">
     <g id="line2d_12">
      <path d="M 93.355313 638.428792 
L 712.1385 638.428792 
" clip-path="url(#p0e38d2a662)" style="fill: none; stroke: #cccccc; stroke-linecap: round"/>
     </g>
     <g id="text_12">
      <!-- fsl_ad -->
      <g style="fill: #262626" transform="translate(51.9725 642.607933) scale(0.11 -0.11)">
       <use xlink:href="#DejaVuSans-66"/>
       <use xlink:href="#DejaVuSans-73" x="35.205078"/>
       <use xlink:href="#DejaVuSans-6c" x="87.304688"/>
       <use xlink:href="#DejaVuSans-5f" x="115.087891"/>
       <use xlink:href="#DejaVuSans-61" x="165.087891"/>
       <use xlink:href="#DejaVuSans-64" x="226.367188"/>
      </g>
     </g>
    </g>
   </g>
   <g id="PathCollection_1">
    <path d="M 105.254989 53.390356 
C 107.89254 53.390356 110.422418 52.342446 112.287448 50.477417 
C 114.152478 48.612387 115.200388 46.082508 115.200388 43.444958 
C 115.200388 40.807407 114.152478 38.277529 112.287448 36.412499 
C 110.422418 34.54747 107.89254 33.49956 105.254989 33.49956 
C 102.617439 33.49956 100.08756 34.54747 98.222531 36.412499 
C 96.357501 38.277529 95.309591 40.807407 95.309591 43.444958 
C 95.309591 46.082508 96.357501 48.612387 98.222531 50.477417 
C 100.08756 52.342446 102.617439 53.390356 105.254989 53.390356 
z
" clip-path="url(#p0e38d2a662)" style="fill: #eed2d7; stroke: #1a1a1a; stroke-width: 1.324902"/>
    <path d="M 105.254989 172.193679 
C 107.841238 172.193679 110.321908 171.166151 112.150662 169.337398 
C 113.979416 167.508644 115.006943 165.027973 115.006943 162.441725 
C 115.006943 159.855476 113.979416 157.374806 112.150662 155.546052 
C 110.321908 153.717298 107.841238 152.689771 105.254989 152.689771 
C 102.668741 152.689771 100.18807 153.717298 98.359316 155.546052 
C 96.530563 157.374806 95.503035 159.855476 95.503035 162.441725 
C 95.503035 165.027973 96.530563 167.508644 98.359316 169.337398 
C 100.18807 171.166151 102.668741 172.193679 105.254989 172.193679 
z
" clip-path="url(#p0e38d2a662)" style="fill: #f4e1e4; stroke: #1a1a1a; stroke-width: 1.324902"/>
    <path d="M 105.254989 291.784503 
C 107.998783 291.784503 110.630568 290.694382 112.570724 288.754226 
C 114.510879 286.814071 115.601 284.182286 115.601 281.438492 
C 115.601 278.694697 114.510879 276.062912 112.570724 274.122757 
C 110.630568 272.182601 107.998783 271.09248 105.254989 271.09248 
C 102.511195 271.09248 99.87941 272.182601 97.939255 274.122757 
C 95.999099 276.062912 94.908978 278.694697 94.908978 281.438492 
C 94.908978 284.182286 95.999099 286.814071 97.939255 288.754226 
C 99.87941 290.694382 102.511195 291.784503 105.254989 291.784503 
z
" clip-path="url(#p0e38d2a662)" style="fill: #e2b1ba; stroke: #1a1a1a; stroke-width: 1.324902"/>
    <path d="M 105.254989 410.940659 
C 108.041054 410.940659 110.713384 409.833744 112.683429 407.863698 
C 114.653475 405.893653 115.76039 403.221323 115.76039 400.435258 
C 115.76039 397.649194 114.653475 394.976864 112.683429 393.006818 
C 110.713384 391.036773 108.041054 389.929858 105.254989 389.929858 
C 102.468924 389.929858 99.796594 391.036773 97.826549 393.006818 
C 95.856504 394.976864 94.749589 397.649194 94.749589 400.435258 
C 94.749589 403.221323 95.856504 405.893653 97.826549 407.863698 
C 99.796594 409.833744 102.468924 410.940659 105.254989 410.940659 
z
" clip-path="url(#p0e38d2a662)" style="fill: #dda3ad; stroke: #1a1a1a; stroke-width: 1.324902"/>
    <path d="M 105.254989 530.612365 
C 108.22005 530.612365 111.064069 529.434334 113.160683 527.337719 
C 115.257298 525.241105 116.435329 522.397086 116.435329 519.432025 
C 116.435329 516.466964 115.257298 513.622946 113.160683 511.526331 
C 111.064069 509.429717 108.22005 508.251685 105.254989 508.251685 
C 102.289928 508.251685 99.44591 509.429717 97.349295 511.526331 
C 95.252681 513.622946 94.074649 516.466964 94.074649 519.432025 
C 94.074649 522.397086 95.252681 525.241105 97.349295 527.337719 
C 99.44591 529.434334 102.289928 530.612365 105.254989 530.612365 
z
" clip-path="url(#p0e38d2a662)" style="fill: #c76a7a; stroke: #1a1a1a; stroke-width: 1.324902"/>
    <path d="M 224.251756 647.924645 
C 226.770086 647.924645 229.18561 646.924102 230.966338 645.143374 
C 232.747066 643.362646 233.747608 640.947122 233.747608 638.428792 
C 233.747608 635.910463 232.747066 633.494938 230.966338 631.71421 
C 229.18561 629.933483 226.770086 628.93294 224.251756 628.93294 
C 221.733426 628.93294 219.317902 629.933483 217.537174 631.71421 
C 215.756446 633.494938 214.755904 635.910463 214.755904 638.428792 
C 214.755904 640.947122 215.756446 643.362646 217.537174 645.143374 
C 219.317902 646.924102 221.733426 647.924645 224.251756 647.924645 
z
" clip-path="url(#p0e38d2a662)" style="fill: #fbf4f5; stroke: #1a1a1a; stroke-width: 1.324902"/>
    <path d="M 224.251756 171.996613 
C 226.785742 171.996613 229.216284 170.98985 231.008083 169.198051 
C 232.799881 167.406253 233.806645 164.975711 233.806645 162.441725 
C 233.806645 159.907739 232.799881 157.477197 231.008083 155.685398 
C 229.216284 153.893599 226.785742 152.886836 224.251756 152.886836 
C 221.71777 152.886836 219.287228 153.893599 217.495429 155.685398 
C 215.703631 157.477197 214.696867 159.907739 214.696867 162.441725 
C 214.696867 164.975711 215.703631 167.406253 217.495429 169.198051 
C 219.287228 170.98985 221.71777 171.996613 224.251756 171.996613 
z
" clip-path="url(#p0e38d2a662)" style="fill: #faf0f2; stroke: #1a1a1a; stroke-width: 1.324902"/>
    <path d="M 224.251756 291.285046 
C 226.863093 291.285046 229.367828 290.247551 231.214322 288.401057 
C 233.060816 286.554563 234.098311 284.049828 234.098311 281.438492 
C 234.098311 278.827155 233.060816 276.32242 231.214322 274.475926 
C 229.367828 272.629432 226.863093 271.591937 224.251756 271.591937 
C 221.640419 271.591937 219.135684 272.629432 217.28919 274.475926 
C 215.442696 276.32242 214.405201 278.827155 214.405201 281.438492 
C 214.405201 284.049828 215.442696 286.554563 217.28919 288.401057 
C 219.135684 290.247551 221.640419 291.285046 224.251756 291.285046 
z
" clip-path="url(#p0e38d2a662)" style="fill: #f1d9dd; stroke: #1a1a1a; stroke-width: 1.324902"/>
    <path d="M 224.251756 410.785541 
C 226.996683 410.785541 229.629555 409.69497 231.570511 407.754013 
C 233.511468 405.813057 234.602039 403.180185 234.602039 400.435258 
C 234.602039 397.690331 233.511468 395.05746 231.570511 393.116503 
C 229.629555 391.175547 226.996683 390.084976 224.251756 390.084976 
C 221.506829 390.084976 218.873957 391.175547 216.933001 393.116503 
C 214.992044 395.05746 213.901473 397.690331 213.901473 400.435258 
C 213.901473 403.180185 214.992044 405.813057 216.933001 407.754013 
C 218.873957 409.69497 221.506829 410.785541 224.251756 410.785541 
z
" clip-path="url(#p0e38d2a662)" style="fill: #e2b1ba; stroke: #1a1a1a; stroke-width: 1.324902"/>
    <path d="M 224.251756 530.110592 
C 227.083745 530.110592 229.800124 528.985431 231.802643 526.982912 
C 233.805162 524.980394 234.930323 522.264014 234.930323 519.432025 
C 234.930323 516.600036 233.805162 513.883657 231.802643 511.881138 
C 229.800124 509.878619 227.083745 508.753458 224.251756 508.753458 
C 221.419767 508.753458 218.703388 509.878619 216.700869 511.881138 
C 214.69835 513.883657 213.573189 516.600036 213.573189 519.432025 
C 213.573189 522.264014 214.69835 524.980394 216.700869 526.982912 
C 218.703388 528.985431 221.419767 530.110592 224.251756 530.110592 
z
" clip-path="url(#p0e38d2a662)" style="fill: #d795a1; stroke: #1a1a1a; stroke-width: 1.324902"/>
    <path d="M 343.248523 647.800169 
C 345.733841 647.800169 348.117702 646.812742 349.875087 645.055356 
C 351.632472 643.297971 352.6199 640.91411 352.6199 638.428792 
C 352.6199 635.943474 351.632472 633.559613 349.875087 631.802228 
C 348.117702 630.044842 345.733841 629.057415 343.248523 629.057415 
C 340.763205 629.057415 338.379344 630.044842 336.621959 631.802228 
C 334.864573 633.559613 333.877146 635.943474 333.877146 638.428792 
C 333.877146 640.91411 334.864573 643.297971 336.621959 645.055356 
C 338.379344 646.812742 340.763205 647.800169 343.248523 647.800169 
z
" clip-path="url(#p0e38d2a662)" style="fill: #fefdfd; stroke: #1a1a1a; stroke-width: 1.324902"/>
    <path d="M 343.248523 53.074364 
C 345.802271 53.074364 348.251768 52.059749 350.057541 50.253976 
C 351.863314 48.448203 352.877929 45.998706 352.877929 43.444958 
C 352.877929 40.89121 351.863314 38.441712 350.057541 36.63594 
C 348.251768 34.830167 345.802271 33.815552 343.248523 33.815552 
C 340.694775 33.815552 338.245277 34.830167 336.439505 36.63594 
C 334.633732 38.441712 333.619117 40.89121 333.619117 43.444958 
C 333.619117 45.998706 334.633732 48.448203 336.439505 50.253976 
C 338.245277 52.059749 340.694775 53.074364 343.248523 53.074364 
z
" clip-path="url(#p0e38d2a662)" style="fill: #f7ebed; stroke: #1a1a1a; stroke-width: 1.324902"/>
    <path d="M 343.248523 291.451236 
C 345.903934 291.451236 348.450944 290.396231 350.328603 288.518571 
C 352.206262 286.640912 353.261268 284.093903 353.261268 281.438492 
C 353.261268 278.783081 352.206262 276.236071 350.328603 274.358412 
C 348.450944 272.480753 345.903934 271.425747 343.248523 271.425747 
C 340.593112 271.425747 338.046102 272.480753 336.168443 274.358412 
C 334.290784 276.236071 333.235778 278.783081 333.235778 281.438492 
C 333.235778 284.093903 334.290784 286.640912 336.168443 288.518571 
C 338.046102 290.396231 340.593112 291.451236 343.248523 291.451236 
z
" clip-path="url(#p0e38d2a662)" style="fill: #ecccd2; stroke: #1a1a1a; stroke-width: 1.324902"/>
    <path d="M 343.248523 410.761959 
C 345.987196 410.761959 348.614068 409.673872 350.550603 407.737338 
C 352.487137 405.800804 353.575223 403.173931 353.575223 400.435258 
C 353.575223 397.696586 352.487137 395.069713 350.550603 393.133179 
C 348.614068 391.196644 345.987196 390.108558 343.248523 390.108558 
C 340.50985 390.108558 337.882977 391.196644 335.946443 393.133179 
C 334.009909 395.069713 332.921823 397.696586 332.921823 400.435258 
C 332.921823 403.173931 334.009909 405.800804 335.946443 407.737338 
C 337.882977 409.673872 340.50985 410.761959 343.248523 410.761959 
z
" clip-path="url(#p0e38d2a662)" style="fill: #e2b2bb; stroke: #1a1a1a; stroke-width: 1.324902"/>
    <path d="M 343.248523 530.081222 
C 346.072723 530.081222 348.781631 528.959155 350.778642 526.962144 
C 352.775653 524.965133 353.897719 522.256225 353.897719 519.432025 
C 353.897719 516.607825 352.775653 513.898917 350.778642 511.901906 
C 348.781631 509.904895 346.072723 508.782829 343.248523 508.782829 
C 340.424323 508.782829 337.715415 509.904895 335.718404 511.901906 
C 333.721393 513.898917 332.599326 516.607825 332.599326 519.432025 
C 332.599326 522.256225 333.721393 524.965133 335.718404 526.962144 
C 337.715415 528.959155 340.424323 530.081222 343.248523 530.081222 
z
" clip-path="url(#p0e38d2a662)" style="fill: #d898a3; stroke: #1a1a1a; stroke-width: 1.324902"/>
    <path d="M 462.24529 645.49986 
C 464.120559 645.49986 465.919274 644.754808 467.24529 643.428792 
C 468.571305 642.102777 469.316357 640.304061 469.316357 638.428792 
C 469.316357 636.553523 468.571305 634.754808 467.24529 633.428792 
C 465.919274 632.102777 464.120559 631.357724 462.24529 631.357724 
C 460.370021 631.357724 458.571305 632.102777 457.24529 633.428792 
C 455.919274 634.754808 455.174222 636.553523 455.174222 638.428792 
C 455.174222 640.304061 455.919274 642.102777 457.24529 643.428792 
C 458.571305 644.754808 460.370021 645.49986 462.24529 645.49986 
z
" clip-path="url(#p0e38d2a662)" style="fill: #3372bc; stroke: #1a1a1a; stroke-width: 1.324902"/>
    <path d="M 462.24529 51.738148 
C 464.444669 51.738148 466.554264 50.864325 468.109461 49.309129 
C 469.664657 47.753933 470.53848 45.644338 470.53848 43.444958 
C 470.53848 41.245578 469.664657 39.135983 468.109461 37.580787 
C 466.554264 36.025591 464.444669 35.151768 462.24529 35.151768 
C 460.04591 35.151768 457.936315 36.025591 456.381119 37.580787 
C 454.825922 39.135983 453.9521 41.245578 453.9521 43.444958 
C 453.9521 45.644338 454.825922 47.753933 456.381119 49.309129 
C 457.936315 50.864325 460.04591 51.738148 462.24529 51.738148 
z
" clip-path="url(#p0e38d2a662)" style="fill: #99b9de; stroke: #1a1a1a; stroke-width: 1.324902"/>
    <path d="M 462.24529 170.608535 
C 464.411153 170.608535 466.4886 169.748028 468.020096 168.216532 
C 469.551593 166.685035 470.4121 164.607588 470.4121 162.441725 
C 470.4121 160.275861 469.551593 158.198415 468.020096 156.666918 
C 466.4886 155.135421 464.411153 154.274915 462.24529 154.274915 
C 460.079426 154.274915 458.00198 155.135421 456.470483 156.666918 
C 454.938986 158.198415 454.07848 160.275861 454.07848 162.441725 
C 454.07848 164.607588 454.938986 166.685035 456.470483 168.216532 
C 458.00198 169.748028 460.079426 170.608535 462.24529 170.608535 
z
" clip-path="url(#p0e38d2a662)" style="fill: #8db0d9; stroke: #1a1a1a; stroke-width: 1.324902"/>
    <path d="M 462.24529 410.013114 
C 464.785367 410.013114 467.22175 409.00393 469.017856 407.207825 
C 470.813962 405.411719 471.823145 402.975335 471.823145 400.435258 
C 471.823145 397.895182 470.813962 395.458798 469.017856 393.662692 
C 467.22175 391.866587 464.785367 390.857403 462.24529 390.857403 
C 459.705213 390.857403 457.268829 391.866587 455.472723 393.662692 
C 453.676618 395.458798 452.667435 397.895182 452.667435 400.435258 
C 452.667435 402.975335 453.676618 405.411719 455.472723 407.207825 
C 457.268829 409.00393 459.705213 410.013114 462.24529 410.013114 
z
" clip-path="url(#p0e38d2a662)" style="fill: #f9eef0; stroke: #1a1a1a; stroke-width: 1.324902"/>
    <path d="M 462.24529 529.77977 
C 464.989544 529.77977 467.62177 528.689466 469.56225 526.748986 
C 471.502731 524.808505 472.593035 522.176279 472.593035 519.432025 
C 472.593035 516.687771 471.502731 514.055545 469.56225 512.115065 
C 467.62177 510.174584 464.989544 509.08428 462.24529 509.08428 
C 459.501036 509.08428 456.86881 510.174584 454.928329 512.115065 
C 452.987848 514.055545 451.897545 516.687771 451.897545 519.432025 
C 451.897545 522.176279 452.987848 524.808505 454.928329 526.748986 
C 456.86881 528.689466 459.501036 529.77977 462.24529 529.77977 
z
" clip-path="url(#p0e38d2a662)" style="fill: #e2b1ba; stroke: #1a1a1a; stroke-width: 1.324902"/>
    <path d="M 581.242056 646.831223 
C 583.470407 646.831223 585.60779 645.94589 587.183472 644.370208 
C 588.759154 642.794526 589.644487 640.657143 589.644487 638.428792 
C 589.644487 636.200441 588.759154 634.063058 587.183472 632.487376 
C 585.60779 630.911695 583.470407 630.026362 581.242056 630.026362 
C 579.013706 630.026362 576.876323 630.911695 575.300641 632.487376 
C 573.724959 634.063058 572.839626 636.200441 572.839626 638.428792 
C 572.839626 640.657143 573.724959 642.794526 575.300641 644.370208 
C 576.876323 645.94589 579.013706 646.831223 581.242056 646.831223 
z
" clip-path="url(#p0e38d2a662)" style="fill: #a3bfe1; stroke: #1a1a1a; stroke-width: 1.324902"/>
    <path d="M 581.242056 52.291254 
C 583.588122 52.291254 585.838414 51.359153 587.497333 49.700234 
C 589.156251 48.041315 590.088353 45.791023 590.088353 43.444958 
C 590.088353 41.098893 589.156251 38.8486 587.497333 37.189682 
C 585.838414 35.530763 583.588122 34.598662 581.242056 34.598662 
C 578.895991 34.598662 576.645699 35.530763 574.98678 37.189682 
C 573.327862 38.8486 572.39576 41.098893 572.39576 43.444958 
C 572.39576 45.791023 573.327862 48.041315 574.98678 49.700234 
C 576.645699 51.359153 578.895991 52.291254 581.242056 52.291254 
z
" clip-path="url(#p0e38d2a662)" style="fill: #cddcee; stroke: #1a1a1a; stroke-width: 1.324902"/>
    <path d="M 581.242056 171.292556 
C 583.589324 171.292556 585.84077 170.359976 587.500539 168.700207 
C 589.160308 167.040438 590.092888 164.788993 590.092888 162.441725 
C 590.092888 160.094457 589.160308 157.843011 587.500539 156.183242 
C 585.84077 154.523473 583.589324 153.590894 581.242056 153.590894 
C 578.894789 153.590894 576.643343 154.523473 574.983574 156.183242 
C 573.323805 157.843011 572.391225 160.094457 572.391225 162.441725 
C 572.391225 164.788993 573.323805 167.040438 574.983574 168.700207 
C 576.643343 170.359976 578.894789 171.292556 581.242056 171.292556 
z
" clip-path="url(#p0e38d2a662)" style="fill: #cddcee; stroke: #1a1a1a; stroke-width: 1.324902"/>
    <path d="M 581.242056 291.9147 
C 584.02038 291.9147 586.685284 290.810861 588.649855 288.84629 
C 590.614426 286.881719 591.718265 284.216815 591.718265 281.438492 
C 591.718265 278.660169 590.614426 275.995264 588.649855 274.030693 
C 586.685284 272.066122 584.02038 270.962283 581.242056 270.962283 
C 578.463733 270.962283 575.798829 272.066122 573.834258 274.030693 
C 571.869687 275.995264 570.765848 278.660169 570.765848 281.438492 
C 570.765848 284.216815 571.869687 286.881719 573.834258 288.84629 
C 575.798829 290.810861 578.463733 291.9147 581.242056 291.9147 
z
" clip-path="url(#p0e38d2a662)" style="fill: #dea7b0; stroke: #1a1a1a; stroke-width: 1.324902"/>
    <path d="M 581.242056 529.929158 
C 584.025929 529.929158 586.696155 528.823113 588.66465 526.854619 
C 590.633145 524.886124 591.739189 522.215897 591.739189 519.432025 
C 591.739189 516.648153 590.633145 513.977927 588.66465 512.009432 
C 586.696155 510.040937 584.025929 508.934893 581.242056 508.934893 
C 578.458184 508.934893 575.787958 510.040937 573.819463 512.009432 
C 571.850968 513.977927 570.744924 516.648153 570.744924 519.432025 
C 570.744924 522.215897 571.850968 524.886124 573.819463 526.854619 
C 575.787958 528.823113 578.458184 529.929158 581.242056 529.929158 
z
" clip-path="url(#p0e38d2a662)" style="fill: #dda4ae; stroke: #1a1a1a; stroke-width: 1.324902"/>
    <path d="M 700.238823 646.532242 
C 702.387883 646.532242 704.449213 645.678411 705.968828 644.158796 
C 707.488443 642.639181 708.342273 640.577852 708.342273 638.428792 
C 708.342273 636.279732 707.488443 634.218403 705.968828 632.698788 
C 704.449213 631.179173 702.387883 630.325342 700.238823 630.325342 
C 698.089763 630.325342 696.028434 631.179173 694.508819 632.698788 
C 692.989204 634.218403 692.135373 636.279732 692.135373 638.428792 
C 692.135373 640.577852 692.989204 642.639181 694.508819 644.158796 
C 696.028434 645.678411 698.089763 646.532242 700.238823 646.532242 
z
" clip-path="url(#p0e38d2a662)" style="fill: #88add8; stroke: #1a1a1a; stroke-width: 1.324902"/>
    <path d="M 700.238823 51.918801 
C 702.486113 51.918801 704.641661 51.025943 706.230735 49.43687 
C 707.819808 47.847796 708.712666 45.692247 708.712666 43.444958 
C 708.712666 41.197669 707.819808 39.04212 706.230735 37.453046 
C 704.641661 35.863973 702.486113 34.971115 700.238823 34.971115 
C 697.991534 34.971115 695.835985 35.863973 694.246912 37.453046 
C 692.657838 39.04212 691.764981 41.197669 691.764981 43.444958 
C 691.764981 45.692247 692.657838 47.847796 694.246912 49.43687 
C 695.835985 51.025943 697.991534 51.918801 700.238823 51.918801 
z
" clip-path="url(#p0e38d2a662)" style="fill: #a9c4e3; stroke: #1a1a1a; stroke-width: 1.324902"/>
    <path d="M 700.238823 170.747716 
C 702.441598 170.747716 704.554449 169.872544 706.112046 168.314947 
C 707.669643 166.757351 708.544814 164.644499 708.544814 162.441725 
C 708.544814 160.23895 707.669643 158.126099 706.112046 156.568502 
C 704.554449 155.010905 702.441598 154.135734 700.238823 154.135734 
C 698.036049 154.135734 695.923197 155.010905 694.365601 156.568502 
C 692.808004 158.126099 691.932832 160.23895 691.932832 162.441725 
C 691.932832 164.644499 692.808004 166.757351 694.365601 168.314947 
C 695.923197 169.872544 698.036049 170.747716 700.238823 170.747716 
z
" clip-path="url(#p0e38d2a662)" style="fill: #99b9de; stroke: #1a1a1a; stroke-width: 1.324902"/>
    <path d="M 700.238823 290.45985 
C 702.631316 290.45985 704.92614 289.509303 706.617887 287.817555 
C 708.309635 286.125808 709.260182 283.830984 709.260182 281.438492 
C 709.260182 279.045999 708.309635 276.751175 706.617887 275.059428 
C 704.92614 273.36768 702.631316 272.417133 700.238823 272.417133 
C 697.846331 272.417133 695.551507 273.36768 693.85976 275.059428 
C 692.168012 276.751175 691.217465 279.045999 691.217465 281.438492 
C 691.217465 283.830984 692.168012 286.125808 693.85976 287.817555 
C 695.551507 289.509303 697.846331 290.45985 700.238823 290.45985 
z
" clip-path="url(#p0e38d2a662)" style="fill: #dee8f4; stroke: #1a1a1a; stroke-width: 1.324902"/>
    <path d="M 700.238823 409.963245 
C 702.765675 409.963245 705.189373 408.959316 706.976127 407.172562 
C 708.762881 405.385808 709.76681 402.96211 709.76681 400.435258 
C 709.76681 397.908407 708.762881 395.484708 706.976127 393.697955 
C 705.189373 391.911201 702.765675 390.907272 700.238823 390.907272 
C 697.711972 390.907272 695.288273 391.911201 693.501519 393.697955 
C 691.714766 395.484708 690.710837 397.908407 690.710837 400.435258 
C 690.710837 402.96211 691.714766 405.385808 693.501519 407.172562 
C 695.288273 408.959316 697.711972 409.963245 700.238823 409.963245 
z
" clip-path="url(#p0e38d2a662)" style="fill: #faf2f3; stroke: #1a1a1a; stroke-width: 1.324902"/>
   </g>
   <g id="line2d_13"/>
   <g id="line2d_14"/>
   <g id="line2d_15"/>
   <g id="line2d_16"/>
   <g id="line2d_17"/>
  </g>
  <g id="legend_1">
   <g id="text_13">
    <!-- val -->
    <g style="fill: #262626" transform="translate(738.599453 322.946406) scale(0.12 -0.12)">
     <defs>
      <path id="DejaVuSans-76" d="M 191 3500 
L 800 3500 
L 1894 563 
L 2988 3500 
L 3597 3500 
L 2284 0 
L 1503 0 
L 191 3500 
z
" transform="scale(0.015625)"/>
     </defs>
     <use xlink:href="#DejaVuSans-76"/>
     <use xlink:href="#DejaVuSans-61" x="59.179688"/>
     <use xlink:href="#DejaVuSans-6c" x="120.458984"/>
    </g>
   </g>
   <g id="line2d_18">
    <defs>
     <path id="mdfc2643d56" d="M 0 7.582875 
C 2.011002 7.582875 3.939909 6.783896 5.361903 5.361903 
C 6.783896 3.939909 7.582875 2.011002 7.582875 0 
C 7.582875 -2.011002 6.783896 -3.939909 5.361903 -5.361903 
C 3.939909 -6.783896 2.011002 -7.582875 0 -7.582875 
C -2.011002 -7.582875 -3.939909 -6.783896 -5.361903 -5.361903 
C -6.783896 -3.939909 -7.582875 -2.011002 -7.582875 0 
C -7.582875 2.011002 -6.783896 3.939909 -5.361903 5.361903 
C -3.939909 6.783896 -2.011002 7.582875 0 7.582875 
z
"/>
    </defs>
    <g>
     <use xlink:href="#mdfc2643d56" x="729.738906" y="335.450312" style="fill: #5b8ec9"/>
    </g>
   </g>
   <g id="text_14">
    <!-- −0.8 -->
    <g style="fill: #262626" transform="translate(749.538906 339.300313) scale(0.11 -0.11)">
     <defs>
      <path id="DejaVuSans-2212" d="M 678 2272 
L 4684 2272 
L 4684 1741 
L 678 1741 
L 678 2272 
z
" transform="scale(0.015625)"/>
      <path id="DejaVuSans-30" d="M 2034 4250 
Q 1547 4250 1301 3770 
Q 1056 3291 1056 2328 
Q 1056 1369 1301 889 
Q 1547 409 2034 409 
Q 2525 409 2770 889 
Q 3016 1369 3016 2328 
Q 3016 3291 2770 3770 
Q 2525 4250 2034 4250 
z
M 2034 4750 
Q 2819 4750 3233 4129 
Q 3647 3509 3647 2328 
Q 3647 1150 3233 529 
Q 2819 -91 2034 -91 
Q 1250 -91 836 529 
Q 422 1150 422 2328 
Q 422 3509 836 4129 
Q 1250 4750 2034 4750 
z
" transform="scale(0.015625)"/>
      <path id="DejaVuSans-2e" d="M 684 794 
L 1344 794 
L 1344 0 
L 684 0 
L 684 794 
z
" transform="scale(0.015625)"/>
      <path id="DejaVuSans-38" d="M 2034 2216 
Q 1584 2216 1326 1975 
Q 1069 1734 1069 1313 
Q 1069 891 1326 650 
Q 1584 409 2034 409 
Q 2484 409 2743 651 
Q 3003 894 3003 1313 
Q 3003 1734 2745 1975 
Q 2488 2216 2034 2216 
z
M 1403 2484 
Q 997 2584 770 2862 
Q 544 3141 544 3541 
Q 544 4100 942 4425 
Q 1341 4750 2034 4750 
Q 2731 4750 3128 4425 
Q 3525 4100 3525 3541 
Q 3525 3141 3298 2862 
Q 3072 2584 2669 2484 
Q 3125 2378 3379 2068 
Q 3634 1759 3634 1313 
Q 3634 634 3220 271 
Q 2806 -91 2034 -91 
Q 1263 -91 848 271 
Q 434 634 434 1313 
Q 434 1759 690 2068 
Q 947 2378 1403 2484 
z
M 1172 3481 
Q 1172 3119 1398 2916 
Q 1625 2713 2034 2713 
Q 2441 2713 2670 2916 
Q 2900 3119 2900 3481 
Q 2900 3844 2670 4047 
Q 2441 4250 2034 4250 
Q 1625 4250 1398 4047 
Q 1172 3844 1172 3481 
z
" transform="scale(0.015625)"/>
     </defs>
     <use xlink:href="#DejaVuSans-2212"/>
     <use xlink:href="#DejaVuSans-30" x="83.789062"/>
     <use xlink:href="#DejaVuSans-2e" x="147.412109"/>
     <use xlink:href="#DejaVuSans-38" x="179.199219"/>
    </g>
   </g>
   <g id="line2d_19">
    <defs>
     <path id="mb86d09ad6f" d="M 0 8.514693 
C 2.258123 8.514693 4.424063 7.617531 6.020797 6.020797 
C 7.617531 4.424063 8.514693 2.258123 8.514693 0 
C 8.514693 -2.258123 7.617531 -4.424063 6.020797 -6.020797 
C 4.424063 -7.617531 2.258123 -8.514693 0 -8.514693 
C -2.258123 -8.514693 -4.424063 -7.617531 -6.020797 -6.020797 
C -7.617531 -4.424063 -8.514693 -2.258123 -8.514693 0 
C -8.514693 2.258123 -7.617531 4.424063 -6.020797 6.020797 
C -4.424063 7.617531 -2.258123 8.514693 0 8.514693 
z
"/>
    </defs>
    <g>
     <use xlink:href="#mb86d09ad6f" x="729.738906" y="351.59625" style="fill: #adc6e4"/>
    </g>
   </g>
   <g id="text_15">
    <!-- −0.4 -->
    <g style="fill: #262626" transform="translate(749.538906 355.44625) scale(0.11 -0.11)">
     <defs>
      <path id="DejaVuSans-34" d="M 2419 4116 
L 825 1625 
L 2419 1625 
L 2419 4116 
z
M 2253 4666 
L 3047 4666 
L 3047 1625 
L 3713 1625 
L 3713 1100 
L 3047 1100 
L 3047 0 
L 2419 0 
L 2419 1100 
L 313 1100 
L 313 1709 
L 2253 4666 
z
" transform="scale(0.015625)"/>
     </defs>
     <use xlink:href="#DejaVuSans-2212"/>
     <use xlink:href="#DejaVuSans-30" x="83.789062"/>
     <use xlink:href="#DejaVuSans-2e" x="147.412109"/>
     <use xlink:href="#DejaVuSans-34" x="179.199219"/>
    </g>
   </g>
   <g id="line2d_20">
    <defs>
     <path id="m8aac65a797" d="M 0 9.354143 
C 2.480748 9.354143 4.860225 8.368532 6.614378 6.614378 
C 8.368532 4.860225 9.354143 2.480748 9.354143 0 
C 9.354143 -2.480748 8.368532 -4.860225 6.614378 -6.614378 
C 4.860225 -8.368532 2.480748 -9.354143 0 -9.354143 
C -2.480748 -9.354143 -4.860225 -8.368532 -6.614378 -6.614378 
C -8.368532 -4.860225 -9.354143 -2.480748 -9.354143 0 
C -9.354143 2.480748 -8.368532 4.860225 -6.614378 6.614378 
C -4.860225 8.368532 -2.480748 9.354143 0 9.354143 
z
"/>
    </defs>
    <g>
     <use xlink:href="#m8aac65a797" x="729.738906" y="367.742188" style="fill: #fffefe"/>
    </g>
   </g>
   <g id="text_16">
    <!-- 0.0 -->
    <g style="fill: #262626" transform="translate(749.538906 371.592188) scale(0.11 -0.11)">
     <use xlink:href="#DejaVuSans-30"/>
     <use xlink:href="#DejaVuSans-2e" x="63.623047"/>
     <use xlink:href="#DejaVuSans-30" x="95.410156"/>
    </g>
   </g>
   <g id="line2d_21">
    <defs>
     <path id="m5742108296" d="M 0 10.124228 
C 2.684977 10.124228 5.260345 9.057476 7.158911 7.158911 
C 9.057476 5.260345 10.124228 2.684977 10.124228 0 
C 10.124228 -2.684977 9.057476 -5.260345 7.158911 -7.158911 
C 5.260345 -9.057476 2.684977 -10.124228 0 -10.124228 
C -2.684977 -10.124228 -5.260345 -9.057476 -7.158911 -7.158911 
C -9.057476 -5.260345 -10.124228 -2.684977 -10.124228 0 
C -10.124228 2.684977 -9.057476 5.260345 -7.158911 7.158911 
C -5.260345 9.057476 -2.684977 10.124228 0 10.124228 
z
"/>
    </defs>
    <g>
     <use xlink:href="#m5742108296" x="729.738906" y="383.888125" style="fill: #e8c3c9"/>
    </g>
   </g>
   <g id="text_17">
    <!-- 0.4 -->
    <g style="fill: #262626" transform="translate(749.538906 387.738125) scale(0.11 -0.11)">
     <use xlink:href="#DejaVuSans-30"/>
     <use xlink:href="#DejaVuSans-2e" x="63.623047"/>
     <use xlink:href="#DejaVuSans-34" x="95.410156"/>
    </g>
   </g>
   <g id="line2d_22">
    <defs>
     <path id="m9f4b893dfc" d="M 0 10.839742 
C 2.874733 10.839742 5.632112 9.697598 7.664855 7.664855 
C 9.697598 5.632112 10.839742 2.874733 10.839742 0 
C 10.839742 -2.874733 9.697598 -5.632112 7.664855 -7.664855 
C 5.632112 -9.697598 2.874733 -10.839742 0 -10.839742 
C -2.874733 -10.839742 -5.632112 -9.697598 -7.664855 -7.664855 
C -9.697598 -5.632112 -10.839742 -2.874733 -10.839742 0 
C -10.839742 2.874733 -9.697598 5.632112 -7.664855 7.664855 
C -5.632112 9.697598 -2.874733 10.839742 0 10.839742 
z
"/>
    </defs>
    <g>
     <use xlink:href="#m9f4b893dfc" x="729.738906" y="400.034063" style="fill: #d28794"/>
    </g>
   </g>
   <g id="text_18">
    <!-- 0.8 -->
    <g style="fill: #262626" transform="translate(749.538906 403.884063) scale(0.11 -0.11)">
     <use xlink:href="#DejaVuSans-30"/>
     <use xlink:href="#DejaVuSans-2e" x="63.623047"/>
     <use xlink:href="#DejaVuSans-38" x="95.410156"/>
    </g>
   </g>
  </g>
 </g>
 <defs>
  <clipPath id="p0e38d2a662">
   <rect x="93.355313" y="31.545281" width="618.783188" height="618.783187"/>
  </clipPath>
 </defs>
</svg>
